#N canvas 523 56 642 742 10;
#X obj 24 192 loadbang;
#X msg 24 213 caminho audio1.wav;
#X msg 309 214 caminho audio2.wav;
#X obj 335 293 mm_audiosample 2;
#N canvas 51 392 1213 263 entrada_android_A 0;
#X obj 35 24 r track_A_On;
#X obj 35 45 t f;
#X obj 35 64 change;
#X msg 35 156 on \$1;
#X obj 125 45 t f;
#X obj 125 64 change;
#X obj 125 24 r track_A_Mode;
#X obj 225 45 t f;
#X obj 225 64 change;
#X obj 225 24 r track_A_BPM;
#X msg 125 156 mode \$1;
#X msg 225 156 bpm \$1;
#X obj 425 45 t f;
#X obj 425 64 change;
#X obj 835 45 t f;
#X obj 835 64 change;
#X obj 955 45 t f;
#X obj 955 64 change;
#X obj 1065 45 t f;
#X obj 1065 64 change;
#X obj 425 24 r track_A_Rev;
#X msg 425 156 rev \$1;
#X obj 835 24 r track_A_PBSpeed;
#X obj 955 24 r track_A_Fadein;
#X obj 1065 24 r track_A_Fadeout;
#X msg 835 156 pbspeed \$1;
#X obj 35 219 outlet slicer;
#X obj 835 219 outlet sampler;
#X msg 955 156 fadein \$1;
#X msg 1065 156 fadeout \$1;
#X obj 324 45 t f;
#X obj 324 64 change;
#X obj 324 24 r track_A_Div;
#X msg 324 156 div \$1;
#X obj 521 24 r master_Steps;
#X obj 521 66 change;
#X msg 625 192 range \$1 \, offset \$2;
#X obj 625 170 pack f f;
#X obj 662 153 t b f;
#X floatatom 625 118 5 0 0 0 - - -;
#X floatatom 662 118 5 0 0 0 - - -;
#X obj 625 45 t f;
#X obj 625 66 change;
#X obj 725 45 t f;
#X obj 725 66 change;
#X obj 725 24 r track_A_Offset;
#X obj 625 24 r track_A_Range;
#X obj 521 156 pack f f f;
#X msg 521 226 steps \$1 \, range \$2 \, offset \$3;
#X obj 521 45 t f;
#X obj 1065 83 clip 0.1 1;
#X connect 0 0 1 0;
#X connect 1 0 2 0;
#X connect 2 0 3 0;
#X connect 3 0 26 0;
#X connect 4 0 5 0;
#X connect 5 0 10 0;
#X connect 6 0 4 0;
#X connect 7 0 8 0;
#X connect 8 0 11 0;
#X connect 9 0 7 0;
#X connect 10 0 26 0;
#X connect 11 0 26 0;
#X connect 12 0 13 0;
#X connect 13 0 21 0;
#X connect 14 0 15 0;
#X connect 15 0 25 0;
#X connect 16 0 17 0;
#X connect 17 0 28 0;
#X connect 18 0 19 0;
#X connect 19 0 50 0;
#X connect 20 0 12 0;
#X connect 21 0 26 0;
#X connect 22 0 14 0;
#X connect 23 0 16 0;
#X connect 24 0 18 0;
#X connect 25 0 27 0;
#X connect 28 0 27 0;
#X connect 29 0 27 0;
#X connect 30 0 31 0;
#X connect 31 0 33 0;
#X connect 32 0 30 0;
#X connect 33 0 26 0;
#X connect 34 0 49 0;
#X connect 35 0 47 0;
#X connect 36 0 26 0;
#X connect 37 0 36 0;
#X connect 38 0 37 0;
#X connect 38 1 37 1;
#X connect 39 0 37 0;
#X connect 39 0 47 1;
#X connect 40 0 38 0;
#X connect 40 0 47 2;
#X connect 41 0 42 0;
#X connect 42 0 39 0;
#X connect 43 0 44 0;
#X connect 44 0 40 0;
#X connect 45 0 43 0;
#X connect 46 0 41 0;
#X connect 47 0 48 0;
#X connect 48 0 26 0;
#X connect 49 0 35 0;
#X connect 50 0 29 0;
#X restore 45 80 pd entrada_android_A;
#X obj 309 192 loadbang;
#X obj 45 112 mm_randomslice \$0 1;
#X obj 355 405 hsl 128 15 0 1 0 0 empty empty empty -2 -8 0 10 -262144
-1 -1 0 1;
#N canvas 438 431 415 306 __________MIXER___________ 0;
#X obj 47 34 inlet~;
#X obj 107 34 inlet~;
#X obj 200 34 inlet~;
#X obj 260 34 inlet~;
#X obj 318 34 inlet;
#X obj 260 244 *~;
#X obj 107 244 *~;
#X obj 122 213 cos~;
#X obj 275 213 cos~;
#X obj 318 159 +~ 0.25;
#X obj 318 134 *~ 0.25;
#X obj 107 269 outlet~;
#X obj 260 269 outlet~;
#X text 310 212 seno;
#X obj 318 112 line~;
#X obj 200 244 *~;
#X obj 200 269 outlet~;
#X obj 47 244 *~;
#X obj 47 269 outlet~;
#X msg 318 91 \$1 50;
#X connect 0 0 17 0;
#X connect 1 0 6 0;
#X connect 2 0 15 0;
#X connect 3 0 5 0;
#X connect 4 0 19 0;
#X connect 5 0 12 0;
#X connect 6 0 11 0;
#X connect 7 0 6 1;
#X connect 7 0 17 1;
#X connect 8 0 5 1;
#X connect 8 0 15 1;
#X connect 9 0 7 0;
#X connect 10 0 9 0;
#X connect 10 0 8 0;
#X connect 14 0 10 0;
#X connect 15 0 16 0;
#X connect 17 0 18 0;
#X connect 19 0 14 0;
#X restore 45 420 pd __________MIXER___________;
#X obj 121 704 dac~;
#X obj 502 348 r master_Mixer;
#X obj 502 369 t f;
#X obj 502 388 change;
#X obj 45 453 *~ 1;
#X obj 216 453 *~ 1;
#X obj 45 484 e_dynproc;
#X obj 216 484 e_dynproc;
#N canvas 317 277 415 164 preset_limiter 0;
#X obj 43 29 loadbang;
#X obj 43 107 outlet;
#X msg 43 58 comp1 50 \, comp2 1 \, att 1 \, rel 1000 \, thresh 70
\, makeup 40;
#X connect 0 0 2 0;
#X connect 2 0 1 0;
#X restore 292 467 pd preset_limiter;
#X obj 231 596 line~;
#X obj 216 617 *~;
#X msg 231 575 \$1 50;
#X obj 501 504 r master_Vol;
#X obj 501 524 t f;
#X obj 501 543 change;
#X obj 354 560 hsl 128 15 0 1 0 0 empty empty empty -2 -8 0 10 -262144
-1 -1 0 1;
#X obj 45 617 *~;
#X obj 45 328 *~ 0.8;
#X obj 88 328 *~ 0.8;
#X obj 335 328 *~ 0.8;
#X obj 378 328 *~ 0.8;
#X obj 181 234 r caminho_A;
#X obj 181 255 symbol;
#X msg 181 276 caminho \$1;
#X obj 471 255 symbol;
#X msg 471 276 caminho \$1;
#X obj 471 234 r caminho_B;
#X obj 205 7 cnv 15 230 50 empty empty empty 20 12 0 14 -232576 -66577
0;
#X text 216 14 --- B/I/T/S/L/C - Música Móvel ---;
#X text 232 33 musicamovelbahia.wordpress.com;
#N canvas 126 440 1213 263 entrada_android_B 0;
#X obj 35 45 t f;
#X obj 35 64 change;
#X msg 35 156 on \$1;
#X obj 125 45 t f;
#X obj 125 64 change;
#X obj 225 45 t f;
#X obj 225 64 change;
#X msg 125 156 mode \$1;
#X msg 225 156 bpm \$1;
#X obj 425 45 t f;
#X obj 425 64 change;
#X obj 835 45 t f;
#X obj 835 64 change;
#X obj 955 45 t f;
#X obj 955 64 change;
#X obj 1065 45 t f;
#X obj 1065 64 change;
#X msg 425 156 rev \$1;
#X msg 835 156 pbspeed \$1;
#X obj 35 219 outlet slicer;
#X obj 835 219 outlet sampler;
#X msg 955 156 fadein \$1;
#X msg 1065 156 fadeout \$1;
#X obj 324 45 t f;
#X obj 324 64 change;
#X msg 324 156 div \$1;
#X obj 521 24 r master_Steps;
#X obj 521 66 change;
#X msg 625 192 range \$1 \, offset \$2;
#X obj 625 170 pack f f;
#X obj 662 153 t b f;
#X floatatom 625 118 5 0 0 0 - - -;
#X floatatom 662 118 5 0 0 0 - - -;
#X obj 625 45 t f;
#X obj 625 66 change;
#X obj 725 45 t f;
#X obj 725 66 change;
#X obj 521 156 pack f f f;
#X msg 521 226 steps \$1 \, range \$2 \, offset \$3;
#X obj 35 24 r track_B_On;
#X obj 125 24 r track_B_Mode;
#X obj 225 24 r track_B_BPM;
#X obj 324 24 r track_B_Div;
#X obj 425 24 r track_B_Rev;
#X obj 625 24 r track_B_Range;
#X obj 725 24 r track_B_Offset;
#X obj 835 24 r track_B_PBSpeed;
#X obj 955 24 r track_B_Fadein;
#X obj 1065 24 r track_B_Fadeout;
#X obj 521 45 t f;
#X obj 1065 83 clip 0.1 1;
#X connect 0 0 1 0;
#X connect 1 0 2 0;
#X connect 2 0 19 0;
#X connect 3 0 4 0;
#X connect 4 0 7 0;
#X connect 5 0 6 0;
#X connect 6 0 8 0;
#X connect 7 0 19 0;
#X connect 8 0 19 0;
#X connect 9 0 10 0;
#X connect 10 0 17 0;
#X connect 11 0 12 0;
#X connect 12 0 18 0;
#X connect 13 0 14 0;
#X connect 14 0 21 0;
#X connect 15 0 16 0;
#X connect 16 0 50 0;
#X connect 17 0 19 0;
#X connect 18 0 20 0;
#X connect 21 0 20 0;
#X connect 22 0 20 0;
#X connect 23 0 24 0;
#X connect 24 0 25 0;
#X connect 25 0 19 0;
#X connect 26 0 49 0;
#X connect 27 0 37 0;
#X connect 28 0 19 0;
#X connect 29 0 28 0;
#X connect 30 0 29 0;
#X connect 30 1 29 1;
#X connect 31 0 29 0;
#X connect 31 0 37 1;
#X connect 32 0 30 0;
#X connect 32 0 37 2;
#X connect 33 0 34 0;
#X connect 34 0 31 0;
#X connect 35 0 36 0;
#X connect 36 0 32 0;
#X connect 37 0 38 0;
#X connect 38 0 19 0;
#X connect 39 0 0 0;
#X connect 40 0 3 0;
#X connect 41 0 5 0;
#X connect 42 0 23 0;
#X connect 43 0 9 0;
#X connect 44 0 33 0;
#X connect 45 0 35 0;
#X connect 46 0 11 0;
#X connect 47 0 13 0;
#X connect 48 0 15 0;
#X connect 49 0 27 0;
#X connect 50 0 22 0;
#X restore 335 80 pd entrada_android_B;
#X obj 45 293 mm_audiosample 1;
#X obj 181 198 s stepActiveA;
#X obj 181 172 r 1-step_active;
#X obj 471 172 r 2-step_active;
#X obj 471 198 s stepActiveB;
#X obj 335 112 mm_randomslice \$0 2;
#X obj 341 704 writesf~ 2;
#X obj 341 605 r recPath;
#X obj 445 585 r Rec;
#X obj 445 605 t f;
#X obj 445 645 sel 1 0;
#X msg 445 687 start;
#X msg 487 687 stop;
#X obj 341 626 symbol;
#X obj 445 625 change 5;
#X msg 341 647 open -wave \$1;
#X connect 0 0 1 0;
#X connect 1 0 40 0;
#X connect 2 0 3 0;
#X connect 3 0 28 0;
#X connect 3 1 29 0;
#X connect 4 0 6 0;
#X connect 4 1 40 0;
#X connect 5 0 2 0;
#X connect 6 0 40 0;
#X connect 7 0 8 4;
#X connect 8 0 13 0;
#X connect 8 1 14 0;
#X connect 8 2 13 0;
#X connect 8 3 14 0;
#X connect 10 0 11 0;
#X connect 11 0 12 0;
#X connect 12 0 7 0;
#X connect 13 0 15 0;
#X connect 14 0 16 0;
#X connect 15 0 25 0;
#X connect 16 0 19 0;
#X connect 17 0 16 2;
#X connect 17 0 15 2;
#X connect 18 0 19 1;
#X connect 18 0 25 1;
#X connect 19 0 9 1;
#X connect 19 0 46 1;
#X connect 20 0 18 0;
#X connect 21 0 22 0;
#X connect 22 0 23 0;
#X connect 23 0 24 0;
#X connect 24 0 20 0;
#X connect 25 0 9 0;
#X connect 25 0 46 0;
#X connect 26 0 8 0;
#X connect 27 0 8 1;
#X connect 28 0 8 2;
#X connect 29 0 8 3;
#X connect 30 0 31 0;
#X connect 31 0 32 0;
#X connect 32 0 40 0;
#X connect 33 0 34 0;
#X connect 34 0 3 0;
#X connect 35 0 33 0;
#X connect 39 0 45 0;
#X connect 39 1 3 0;
#X connect 40 0 26 0;
#X connect 40 1 27 0;
#X connect 42 0 41 0;
#X connect 43 0 44 0;
#X connect 45 0 3 0;
#X connect 47 0 53 0;
#X connect 48 0 49 0;
#X connect 49 0 54 0;
#X connect 50 0 51 0;
#X connect 50 1 52 0;
#X connect 51 0 46 0;
#X connect 52 0 46 0;
#X connect 53 0 55 0;
#X connect 54 0 50 0;
#X connect 55 0 46 0;
