#N canvas 43 72 724 703 10;
#X obj 180 421 /;
#X msg 180 398 1 \$1;
#X floatatom 180 377 5 0 0 0 - - -;
#X obj 120 438 *;
#X floatatom 120 384 5 0 0 0 - - -;
#X obj 165 476 +;
#X obj 120 410 - 1;
#X obj 120 158 metro;
#X obj 120 138 tgl 15 0 empty empty empty 17 7 0 10 -262144 -1 -1 0
1;
#X obj 120 223 random 16;
#X obj 120 242 + 1;
#X floatatom 147 137 12 0 0 0 - - -;
#X floatatom 221 207 5 0 0 0 - - -;
#X floatatom 216 66 5 0 0 0 - - -;
#X obj 147 92 *;
#X floatatom 90 66 5 0 0 0 - - -;
#X obj 120 498 pack f f;
#X obj 120 459 t f f;
#X msg 120 625 inicio \$1 \, fim \$2 \, play;
#X obj 188 576 swap;
#X obj 233 516 tgl 15 0 empty empty empty 17 7 0 10 -262144 -1 -1 0
1;
#X obj 165 531 == 0;
#X obj 188 596 pack f f;
#N canvas 0 22 169 214 bpm2ms 0;
#X obj 55 27 inlet;
#X obj 55 149 outlet;
#X obj 55 82 /;
#X msg 55 55 1000 \$1;
#X obj 55 113 * 60;
#X connect 0 0 3 0;
#X connect 2 0 4 0;
#X connect 3 0 2 0;
#X connect 4 0 1 0;
#X restore 147 113 pd bpm2ms;
#X text 128 66 BPM;
#X text 255 66 DIV;
#X text 251 514 INVERTE SLICES;
#X obj 120 664 outlet;
#X obj 368 210 nbx 3 20 -1e+37 1e+37 0 0 empty empty BPM 45 11 0 10
-262144 -1 -1 0 256;
#X obj 438 210 nbx 3 20 -1e+37 1e+37 0 0 empty empty DIV 45 11 0 10
-262144 -1 -1 0 256;
#X obj 309 208 tgl 25 0 empty empty empty 17 7 0 10 -261234 -1 -1 0
1;
#N canvas 616 337 252 210 linear 0;
#X obj 61 134 + 1;
#X obj 61 112 % 16;
#X obj 61 89 f;
#X obj 86 89 + 1;
#X msg 76 68 0;
#X obj 61 23 inlet;
#X obj 121 23 inlet;
#X obj 181 23 inlet;
#X obj 61 167 outlet;
#X connect 0 0 8 0;
#X connect 1 0 3 0;
#X connect 1 0 0 0;
#X connect 2 0 1 0;
#X connect 3 0 2 1;
#X connect 4 0 2 1;
#X connect 5 0 2 0;
#X connect 6 0 4 0;
#X connect 7 0 1 1;
#X restore 31 223 pd linear;
#X obj 56 202 bng 15 250 50 0 empty empty empty 17 7 0 10 -262144 -1
-1;
#X obj 180 355 r \$0-n_steps;
#X obj 602 126 s \$0-offset;
#X obj 602 106 s \$0-range;
#X obj 221 187 r \$0-range;
#X obj 309 253 s \$0-on;
#X obj 29 95 r \$0-on;
#X obj 425 253 s \$0-bpm;
#X obj 90 44 r \$0-bpm;
#X obj 482 253 s \$0-div;
#X obj 216 44 r \$0-div;
#X text 218 376 numero de steps;
#X text 53 383 step atual;
#X obj 512 210 tgl 20 0 empty empty REV 25 10 0 10 -203904 -1 -1 0
1;
#X obj 76 288 tgl 15 0 empty empty empty 17 7 0 10 -262144 -1 -1 0
1;
#X obj 165 288 tgl 15 0 empty empty empty 17 7 0 10 -262144 -1 -1 0
1;
#X obj 76 268 == 0;
#X obj 341 208 vradio 12 1 0 2 empty empty empty 0 -8 0 10 -261682
-1 -1 0;
#X obj 361 253 s \$0-mode;
#X obj 165 251 r \$0-mode;
#X obj 120 343 +;
#X floatatom 180 327 5 0 0 0 - - -;
#X obj 180 308 r \$0-offset;
#X obj 602 86 s \$0-n_steps;
#X obj 201 89 f;
#X obj 159 72 t b b;
#X obj 309 44 inlet controles;
#X obj 309 69 route on mode bpm div rev steps range offset;
#X obj 539 253 s \$0-rev;
#X obj 233 495 r \$0-rev;
#X obj 602 20 loadbang;
#X msg 602 40 16 16 0;
#X obj 602 60 unpack f f f;
#X obj 31 306 spigot 1;
#X obj 120 306 spigot 0;
#X obj 120 556 spigot 1;
#X obj 188 556 spigot 0;
#X obj 9 400 s \$2-step_active;
#X obj 29 121 t f b;
#X obj 368 173 f;
#X obj 438 173 f;
#X obj 149 202 s \$0-flush;
#X obj 120 181 t b b b;
#X obj 159 19 r \$0-flush;
#X obj 397 136 r \$0-flush;
#X obj 397 156 t b b;
#N canvas 320 273 142 177 SYNC 0;
#X obj 45 116 outlet;
#X obj 45 38 r \$2-sync;
#X obj 45 58 t b;
#X msg 45 78 1;
#X connect 1 0 2 0;
#X connect 2 0 3 0;
#X connect 3 0 0 0;
#X restore 89 113 pd SYNC;
#X connect 0 0 3 1;
#X connect 0 0 5 1;
#X connect 1 0 0 0;
#X connect 2 0 1 0;
#X connect 3 0 17 0;
#X connect 4 0 6 0;
#X connect 4 0 69 0;
#X connect 5 0 16 1;
#X connect 6 0 3 0;
#X connect 7 0 74 0;
#X connect 8 0 7 0;
#X connect 9 0 10 0;
#X connect 10 0 66 0;
#X connect 11 0 7 1;
#X connect 12 0 9 1;
#X connect 12 0 31 2;
#X connect 13 0 56 1;
#X connect 14 0 23 0;
#X connect 15 0 14 0;
#X connect 16 0 67 0;
#X connect 16 0 68 0;
#X connect 17 0 16 0;
#X connect 17 1 5 0;
#X connect 18 0 27 0;
#X connect 19 0 22 0;
#X connect 19 1 22 1;
#X connect 20 0 21 0;
#X connect 20 0 68 1;
#X connect 21 0 67 1;
#X connect 22 0 18 0;
#X connect 23 0 11 0;
#X connect 28 0 39 0;
#X connect 29 0 41 0;
#X connect 30 0 37 0;
#X connect 31 0 65 0;
#X connect 32 0 31 1;
#X connect 33 0 2 0;
#X connect 36 0 12 0;
#X connect 38 0 70 0;
#X connect 40 0 15 0;
#X connect 42 0 13 0;
#X connect 45 0 60 0;
#X connect 46 0 65 1;
#X connect 47 0 66 1;
#X connect 48 0 46 0;
#X connect 49 0 50 0;
#X connect 51 0 48 0;
#X connect 51 0 47 0;
#X connect 52 0 4 0;
#X connect 53 0 52 1;
#X connect 54 0 53 0;
#X connect 56 0 14 1;
#X connect 57 0 14 0;
#X connect 57 1 56 0;
#X connect 58 0 59 0;
#X connect 59 0 30 0;
#X connect 59 1 49 0;
#X connect 59 2 71 1;
#X connect 59 3 72 1;
#X connect 59 4 45 0;
#X connect 59 5 55 0;
#X connect 59 6 35 0;
#X connect 59 7 34 0;
#X connect 61 0 20 0;
#X connect 62 0 63 0;
#X connect 63 0 64 0;
#X connect 64 0 55 0;
#X connect 64 1 35 0;
#X connect 64 2 34 0;
#X connect 65 0 52 0;
#X connect 66 0 52 0;
#X connect 67 0 18 0;
#X connect 68 0 19 0;
#X connect 70 0 8 0;
#X connect 70 1 32 0;
#X connect 71 0 28 0;
#X connect 72 0 29 0;
#X connect 74 0 31 0;
#X connect 74 1 9 0;
#X connect 74 2 73 0;
#X connect 75 0 57 0;
#X connect 76 0 77 0;
#X connect 77 0 71 0;
#X connect 77 1 72 0;
#X connect 78 0 8 0;
#X coords 0 -1 1 1 260 40 2 300 200;
